<?xml version="1.0" encoding="utf-8"?>
<!DOCTYPE svg PUBLIC "-//W3C//DTD SVG 1.1//EN" "http://www.w3.org/Graphics/SVG/1.1/DTD/svg11.dtd">
<svg version="1.1" id="svg2621" xmlns:svg="http://www.w3.org/2000/svg"
	 xmlns="http://www.w3.org/2000/svg" xmlns:xlink="http://www.w3.org/1999/xlink" x="0px" y="0px" width="28.57px"
	 height="28.572px" viewBox="-9.25 -9.25 28.57 28.572" enable-background="new -9.25 -9.25 28.57 28.572" xml:space="preserve">
<path fill="#797C86" d="M-7.335-2.107l0.042,0.024l4.635,2.676c2.453-4.249,7.886-5.705,12.135-3.251
	c1.401,0.809,2.499,1.943,3.252,3.251l4.676-2.7c-1.212-2.104-2.975-3.928-5.228-5.229C5.349-11.278-3.393-8.936-7.335-2.107
	c-0.021,0.036-0.041,0.073-0.061,0.108C-7.375-2.035-7.355-2.071-7.335-2.107z"/>
<path fill="#E4E5E7" d="M12.729,9.478c-1.644,2.848-4.626,4.44-7.693,4.443v5.4c4.932-0.006,9.729-2.567,12.371-7.143
	c1.301-2.253,1.917-4.715,1.914-7.143c0-0.017,0-0.034,0-0.051c0-0.12-0.002-0.239-0.006-0.358c-0.002-0.035-0.002-0.07-0.004-0.104
	c-0.004-0.119-0.01-0.237-0.018-0.356c-0.002-0.035-0.004-0.07-0.007-0.105c-0.009-0.118-0.019-0.235-0.029-0.353
	C19.254,3.672,19.25,3.636,19.246,3.6c-0.012-0.116-0.025-0.232-0.039-0.348c-0.005-0.037-0.01-0.074-0.015-0.11
	c-0.016-0.115-0.032-0.229-0.051-0.343c-0.006-0.038-0.013-0.076-0.019-0.114c-0.02-0.112-0.039-0.225-0.061-0.336
	c-0.008-0.04-0.016-0.079-0.023-0.118c-0.021-0.11-0.045-0.221-0.07-0.33C18.96,1.86,18.951,1.82,18.941,1.779
	c-0.025-0.108-0.053-0.216-0.08-0.323c-0.011-0.042-0.021-0.083-0.033-0.125c-0.027-0.105-0.058-0.21-0.088-0.315
	c-0.013-0.043-0.025-0.086-0.039-0.129c-0.031-0.103-0.063-0.205-0.096-0.307c-0.016-0.045-0.03-0.089-0.045-0.134
	c-0.034-0.1-0.068-0.199-0.105-0.298c-0.016-0.046-0.033-0.092-0.051-0.138c-0.035-0.097-0.073-0.193-0.111-0.29
	c-0.02-0.047-0.038-0.094-0.058-0.141c-0.039-0.094-0.079-0.188-0.119-0.281c-0.021-0.048-0.042-0.097-0.064-0.145
	c-0.041-0.091-0.083-0.182-0.126-0.272c-0.023-0.049-0.047-0.098-0.07-0.147c-0.044-0.088-0.088-0.176-0.133-0.264
	c-0.026-0.05-0.053-0.1-0.078-0.149c-0.046-0.086-0.092-0.171-0.14-0.256c-0.028-0.05-0.057-0.101-0.085-0.151
	c-0.005-0.008-0.01-0.016-0.014-0.023l0,0l-4.676,2.7C14.261,3.251,14.373,6.63,12.729,9.478z"/>
<path fill="#18191B" d="M0.594,12.73c-4.249-2.453-5.705-7.887-3.251-12.136v0l-4.635-2.676l-0.042-0.024
	c-0.021,0.036-0.04,0.072-0.061,0.108C-7.443-1.914-7.491-1.83-7.537-1.744c-0.031,0.058-0.062,0.116-0.092,0.175
	C-7.666-1.5-7.701-1.43-7.736-1.36c-0.03,0.06-0.06,0.12-0.089,0.18c-0.037,0.077-0.073,0.154-0.109,0.232
	c-0.038,0.081-0.075,0.163-0.111,0.245C-8.083-0.617-8.121-0.53-8.157-0.443c-0.026,0.062-0.051,0.125-0.076,0.187
	c-0.027,0.068-0.054,0.137-0.08,0.206c-0.025,0.064-0.049,0.128-0.072,0.192c-0.026,0.072-0.052,0.145-0.077,0.217
	C-8.491,0.441-8.52,0.523-8.546,0.605c-0.031,0.095-0.062,0.19-0.091,0.286c-0.02,0.065-0.038,0.13-0.057,0.195
	c-0.02,0.068-0.039,0.136-0.058,0.204C-8.77,1.357-8.787,1.424-8.805,1.491c-0.018,0.07-0.035,0.14-0.051,0.209
	c-0.016,0.063-0.031,0.127-0.045,0.191C-8.929,2.011-8.954,2.13-8.978,2.25c-0.013,0.066-0.025,0.132-0.037,0.199
	C-9.027,2.517-9.04,2.584-9.051,2.652C-9.063,2.721-9.074,2.79-9.084,2.858c-0.011,0.068-0.021,0.137-0.03,0.206
	c-0.009,0.066-0.019,0.132-0.027,0.198c-0.015,0.12-0.028,0.239-0.041,0.359c-0.006,0.067-0.012,0.134-0.017,0.201
	c-0.006,0.068-0.011,0.136-0.016,0.204c-0.005,0.069-0.009,0.139-0.013,0.208C-9.231,4.3-9.234,4.367-9.237,4.434
	C-9.24,4.501-9.243,4.569-9.245,4.637C-9.248,4.746-9.249,4.855-9.25,4.964c0,0.024,0,0.048,0,0.073
	c0.006,4.932,2.567,9.728,7.143,12.37c2.253,1.301,4.714,1.917,7.143,1.915v-5.401C3.526,13.923,1.995,13.539,0.594,12.73z"/>
</svg>
